<svg aria-hidden="true" style="position: absolute; width: 0; height: 0; overflow: hidden;" version="1.1" xmlns="http://www.w3.org/2000/svg" xmlns:xlink="http://www.w3.org/1999/xlink">
<defs>
<symbol id="icon-bolt" viewBox="0 0 20 20">
<path d="M13 8v-8l-10 12h4v8l10-12h-4z"></path>
</symbol>
<symbol id="icon-buoy" viewBox="0 0 20 20">
<path d="M17.16 6.42c-0.791-1.555-2.025-2.789-3.535-3.559l-0.045-0.021-1.34 2.69c0.968 0.494 1.736 1.262 2.217 2.202l0.013 0.028 2.69-1.34zM17.16 13.58l-2.69-1.34c-0.494 0.968-1.262 1.736-2.202 2.217l-0.028 0.013 1.34 2.69c1.555-0.791 2.789-2.025 3.559-3.535l0.021-0.045zM6.42 2.84c-1.555 0.791-2.789 2.025-3.559 3.535l-0.021 0.045 2.69 1.34c0.494-0.968 1.262-1.736 2.202-2.217l0.028-0.013-1.34-2.69zM2.84 13.58c0.791 1.555 2.025 2.789 3.535 3.559l0.045 0.021 1.34-2.69c-0.968-0.494-1.736-1.262-2.217-2.202l-0.013-0.028-2.69 1.34zM10 20c-5.523 0-10-4.477-10-10s4.477-10 10-10v0c5.523 0 10 4.477 10 10s-4.477 10-10 10v0zM10 13c1.657 0 3-1.343 3-3s-1.343-3-3-3v0c-1.657 0-3 1.343-3 3s1.343 3 3 3v0z"></path>
</symbol>
<symbol id="icon-dial-pad" viewBox="0 0 20 20">
<path d="M5 4c-1.105 0-2-0.895-2-2s0.895-2 2-2v0c1.105 0 2 0.895 2 2s-0.895 2-2 2v0zM10 4c-1.105 0-2-0.895-2-2s0.895-2 2-2v0c1.105 0 2 0.895 2 2s-0.895 2-2 2v0zM15 4c-1.105 0-2-0.895-2-2s0.895-2 2-2v0c1.105 0 2 0.895 2 2s-0.895 2-2 2v0zM5 9c-1.105 0-2-0.895-2-2s0.895-2 2-2v0c1.105 0 2 0.895 2 2s-0.895 2-2 2v0zM10 9c-1.105 0-2-0.895-2-2s0.895-2 2-2v0c1.105 0 2 0.895 2 2s-0.895 2-2 2v0zM15 9c-1.105 0-2-0.895-2-2s0.895-2 2-2v0c1.105 0 2 0.895 2 2s-0.895 2-2 2v0zM5 14c-1.105 0-2-0.895-2-2s0.895-2 2-2v0c1.105 0 2 0.895 2 2s-0.895 2-2 2v0zM10 14c-1.105 0-2-0.895-2-2s0.895-2 2-2v0c1.105 0 2 0.895 2 2s-0.895 2-2 2v0zM10 20c-1.105 0-2-0.895-2-2s0.895-2 2-2v0c1.105 0 2 0.895 2 2s-0.895 2-2 2v0zM15 14c-1.105 0-2-0.895-2-2s0.895-2 2-2v0c1.105 0 2 0.895 2 2s-0.895 2-2 2v0z"></path>
</symbol>
<symbol id="icon-heart" viewBox="0 0 20 20">
<path d="M10 3.22l-0.61-0.6c-0.983-0.931-2.314-1.504-3.779-1.504-3.038 0-5.5 2.462-5.5 5.5 0 1.462 0.571 2.791 1.501 3.776l-0.002-0.003 8.39 8.39 8.39-8.4c0.928-0.983 1.499-2.312 1.499-3.774 0-3.038-2.462-5.5-5.5-5.5-1.465 0-2.796 0.573-3.782 1.506l0.003-0.002-0.61 0.61z"></path>
</symbol>
<symbol id="icon-indent-increase" viewBox="0 0 20 20">
<path d="M1 1h18v2h-18v-2zM7 9h12v2h-12v-2zM1 17h18v2h-18v-2zM7 5h12v2h-12v-2zM7 13h12v2h-12v-2zM1 6l4 4-4 4v-8z"></path>
</symbol>
<symbol id="icon-information-outline" viewBox="0 0 20 20">
<path d="M2.93 17.070c-1.884-1.821-3.053-4.37-3.053-7.193 0-5.523 4.477-10 10-10 2.823 0 5.372 1.169 7.19 3.050l0.003 0.003c1.737 1.796 2.807 4.247 2.807 6.947 0 5.523-4.477 10-10 10-2.7 0-5.151-1.070-6.95-2.81l0.003 0.003zM15.66 15.66c1.449-1.449 2.344-3.45 2.344-5.66 0-4.421-3.584-8.004-8.004-8.004-2.21 0-4.211 0.896-5.66 2.344v0c-1.449 1.449-2.344 3.45-2.344 5.66 0 4.421 3.584 8.004 8.004 8.004 2.21 0 4.211-0.896 5.66-2.344v0zM9 11v-2h2v6h-2v-4zM9 5h2v2h-2v-2z"></path>
</symbol>
<symbol id="icon-information-solid" viewBox="0 0 20 20">
<path d="M2.93 17.070c-1.884-1.821-3.053-4.37-3.053-7.193 0-5.523 4.477-10 10-10 2.823 0 5.372 1.169 7.19 3.050l0.003 0.003c1.737 1.796 2.807 4.247 2.807 6.947 0 5.523-4.477 10-10 10-2.7 0-5.151-1.070-6.95-2.81l0.003 0.003zM9 11v4h2v-6h-2v2zM9 5v2h2v-2h-2z"></path>
</symbol>
<symbol id="icon-music-notes" viewBox="0 0 20 20">
<path d="M20 2.5v-2.5l-14 2v12.17c-0.297-0.108-0.639-0.17-0.996-0.17-0.002 0-0.003 0-0.005 0h-2c-1.657 0-3 1.343-3 3s1.343 3 3 3v0h2c1.657 0 3-1.343 3-3v0-11.29l10-1.41v7.88c-0.297-0.108-0.639-0.17-0.996-0.17-0.002 0-0.003 0-0.005 0h-2c-1.657 0-3 1.343-3 3s1.343 3 3 3h2c1.657 0 3-1.343 3-3v0-12.51z"></path>
</symbol>
<symbol id="icon-notifications-outline" viewBox="0 0 20 20">
<path d="M6 8v7h8v-7c0-2.209-1.791-4-4-4s-4 1.791-4 4v0zM8.030 2.33c-0.016-0.095-0.025-0.204-0.025-0.315 0-1.105 0.895-2 2-2s2 0.895 2 2c0 0.111-0.009 0.22-0.027 0.327l0.002-0.012c2.361 0.843 4.020 3.060 4.020 5.664 0 0.002 0 0.004 0 0.006v-0 6l3 2v1h-18v-1l3-2v-6c0-0.001 0-0.002 0-0.003 0-2.608 1.664-4.827 3.988-5.654l0.042-0.013zM12 18c0 1.105-0.895 2-2 2s-2-0.895-2-2v0h4z"></path>
</symbol>
<symbol id="icon-radio" viewBox="0 0 20 20">
<path d="M20 9v9c0 1.105-0.895 2-2 2v0h-16c-1.105 0-2-0.895-2-2v0-10c0-1.1 0.9-2 2-2h13.8l-15.060-4.030 0.52-1.94 18.74 5.030v3.94zM15 18c1.657 0 3-1.343 3-3s-1.343-3-3-3v0c-1.657 0-3 1.343-3 3s1.343 3 3 3v0zM2 8v2h16v-2h-16zM3.5 18c0.828 0 1.5-0.672 1.5-1.5s-0.672-1.5-1.5-1.5v0c-0.828 0-1.5 0.672-1.5 1.5s0.672 1.5 1.5 1.5v0zM8.5 18c0.828 0 1.5-0.672 1.5-1.5s-0.672-1.5-1.5-1.5v0c-0.828 0-1.5 0.672-1.5 1.5s0.672 1.5 1.5 1.5v0zM15 17c-1.105 0-2-0.895-2-2s0.895-2 2-2v0c1.105 0 2 0.895 2 2s-0.895 2-2 2v0z"></path>
</symbol>
<symbol id="icon-reload" viewBox="0 0 20 20">
<path d="M14.66 15.66c-1.448 1.45-3.449 2.346-5.66 2.346-4.418 0-8-3.582-8-8s3.582-8 8-8c4.416 0 7.996 3.578 8 7.993v0h-2c0-0.002 0-0.003 0-0.005 0-3.314-2.686-6-6-6s-6 2.686-6 6c0 3.314 2.686 6 6 6 1.656 0 3.154-0.671 4.24-1.755l-0 0 1.42 1.42zM12 10h8l-4 4-4-4z"></path>
</symbol>
<symbol id="icon-target" viewBox="0 0 20 20">
<path d="M17.94 11h-4.94v-2h4.94c-0.469-3.628-3.311-6.471-6.9-6.936l-0.040-0.004v4.94h-2v-4.94c-3.628 0.469-6.471 3.311-6.936 6.9l-0.004 0.040h4.94v2h-4.94c0.469 3.628 3.311 6.471 6.9 6.936l0.040 0.004v-4.94h2v4.94c3.628-0.469 6.471-3.311 6.936-6.9l0.004-0.040zM10 20c-5.523 0-10-4.477-10-10s4.477-10 10-10v0c5.523 0 10 4.477 10 10s-4.477 10-10 10v0z"></path>
</symbol>
<symbol id="icon-thumbs-up" viewBox="0 0 20 20">
<path d="M11 0h1v3l3 7v8c0 1.105-0.895 2-2 2v0h-8c-1.1 0-2.31-0.84-2.7-1.88l-2.3-6.12v-2c0-1.105 0.895-2 2-2v0h7v-6c0-1.105 0.895-2 2-2v0zM17 10h3v10h-3v-10z"></path>
</symbol>
<symbol id="icon-time" viewBox="0 0 20 20">
<path d="M10 20c-5.523 0-10-4.477-10-10s4.477-10 10-10v0c5.523 0 10 4.477 10 10s-4.477 10-10 10v0zM10 18c4.418 0 8-3.582 8-8s-3.582-8-8-8v0c-4.418 0-8 3.582-8 8s3.582 8 8 8v0zM9 10.41v-6.41h2v5.59l3.95 3.95-1.41 1.41-4.54-4.54z"></path>
</symbol>
<symbol id="icon-trophy" viewBox="0 0 20 20">
<path d="M15 9c1.657 0 3-1.343 3-3v0h2c0 0 0 0.001 0 0.001 0 2.761-2.239 5-5 5-0.035 0-0.070-0-0.105-0.001l0.005 0c-0.411 1.966-1.934 3.489-3.867 3.894l-0.033 0.006v2.1l5 2v1h-12v-1l5-2v-2.1c-1.966-0.411-3.489-1.934-3.894-3.867l-0.006-0.033h-0.1c-2.761 0-5-2.239-5-5v0h2c0 1.657 1.343 3 3 3v0-5h-3v2h-2v-4h5v-2h10v2h5v4h-2v-2h-3v5z"></path>
</symbol>
<symbol id="icon-video-camera" viewBox="0 0 20 20">
<path d="M16 7l4-4v14l-4-4v3c0 1.105-0.895 2-2 2v0h-12c-1.105 0-2-0.895-2-2v0-12c0-1.1 0.9-2 2-2h12c1.105 0 2 0.895 2 2v0 3zM8 14c2.209 0 4-1.791 4-4s-1.791-4-4-4v0c-2.209 0-4 1.791-4 4s1.791 4 4 4v0zM8 12c-1.105 0-2-0.895-2-2s0.895-2 2-2v0c1.105 0 2 0.895 2 2s-0.895 2-2 2v0z"></path>
</symbol>
<symbol id="icon-view-tile" viewBox="0 0 20 20">
<path d="M0 0h9v9h-9v-9zM2 2v5h5v-5h-5zM0 11h9v9h-9v-9zM2 13v5h5v-5h-5zM11 0h9v9h-9v-9zM13 2v5h5v-5h-5zM11 11h9v9h-9v-9zM13 13v5h5v-5h-5z"></path>
</symbol>
<symbol id="icon-wallet" viewBox="0 0 20 20">
<path d="M0 4c0-1.1 0.9-2 2-2h15c0.552 0 1 0.448 1 1v0 1h-16v1h17c0.552 0 1 0.448 1 1v0 10c0 1.105-0.895 2-2 2v0h-16c-1.105 0-2-0.895-2-2v0-12zM16.5 13c0.828 0 1.5-0.672 1.5-1.5s-0.672-1.5-1.5-1.5v0c-0.828 0-1.5 0.672-1.5 1.5s0.672 1.5 1.5 1.5v0z"></path>
</symbol>
<symbol id="icon-yin-yang" viewBox="0 0 20 20">
<path d="M10 20c-5.523 0-10-4.477-10-10s4.477-10 10-10v0c5.523 0 10 4.477 10 10s-4.477 10-10 10v0zM10 2c-4.418 0-8 3.582-8 8s3.582 8 8 8v0c-2.209 0-4-1.791-4-4s1.791-4 4-4v0c2.209 0 4-1.791 4-4s-1.791-4-4-4v0zM10 15c0.552 0 1-0.448 1-1s-0.448-1-1-1v0c-0.552 0-1 0.448-1 1s0.448 1 1 1v0zM10 7c-0.552 0-1-0.448-1-1s0.448-1 1-1v0c0.552 0 1 0.448 1 1s-0.448 1-1 1v0z"></path>
</symbol>
<symbol id="icon-mic" viewBox="0 0 32 32">
<path d="M15 22c2.761 0 5-2.239 5-5v-12c0-2.761-2.239-5-5-5s-5 2.239-5 5v12c0 2.761 2.239 5 5 5zM22 14v3c0 3.866-3.134 7-7 7s-7-3.134-7-7v-3h-2v3c0 4.632 3.5 8.447 8 8.944v4.056h-4v2h10v-2h-4v-4.056c4.5-0.497 8-4.312 8-8.944v-3h-2z"></path>
</symbol>
</defs>
</svg>
